# xmcd
#
# Track frame offsets:
#	150
#	13704
#	29534
#	42138
#	54280
#	65057
#	79808
#	92714
#	110437
#	125331
#	141043
#	151570
#	164826
#	175153
#	189912
#	202047
#	217877
#	230817
#	243373
#
# Disc length: 3461 seconds
#
# Revision: 2
# Processed by: cddbd v1.5.2PL0 Copyright (c) Steve Scherf et al.
# Submitted via: EZCDAudioConverter 1.3.4.1
#
DISCID=010d8313
DTITLE=Scott McKenzie - The Voice Of...
DYEAR=2006
DGENRE=
TTITLE0=San Francisco (Be Sure To Wear Some Flowers In Your Hair)
TTITLE1=Celeste
TTITLE2=It's Not Time Now
TTITLE3=What's The Difference (Chapter 2)
TTITLE4=A Reason To Believe
TTITLE5=Like An Old Time Movie
TTITLE6=No, No, No, No, No
TTITLE7=Don't Make Promises
TTITLE8=Twelve Thirty (Young Girls Are Coming To The Canyon)
TTITLE9=Rooms
TTITLE10=What's The Difference (Chapter 1)
TTITLE11=San Francisco (Be Sure To Wear Some Flowers In Your Hair) [Mono Singl
TTITLE11=e]
TTITLE12=What's The Difference [Single Mix]
TTITLE13=Like An Old Time Movie [Mono Single]
TTITLE14=What's The Difference (Chapter 2) [Mono Single]
TTITLE15=Celeste [Mono Single]
TTITLE16=No, No, No, No, No [Mono Single]
TTITLE17=Holy Man
TTITLE18=What's The Difference (Chapter 3)
EXTD=
EXTT0=
EXTT1=
EXTT2=
EXTT3=
EXTT4=
EXTT5=
EXTT6=
EXTT7=
EXTT8=
EXTT9=
EXTT10=
EXTT11=
EXTT12=
EXTT13=
EXTT14=
EXTT15=
EXTT16=
EXTT17=
EXTT18=
PLAYORDER=
